<?xml version="1.0" encoding="utf-8"?>
<!-- Generator: Adobe Illustrator 23.0.3, SVG Export Plug-In . SVG Version: 6.00 Build 0)  -->
<svg version="1.1" id="Capa_1" xmlns="http://www.w3.org/2000/svg" xmlns:xlink="http://www.w3.org/1999/xlink" x="0px" y="0px"
	 viewBox="0 0 512 512" style="enable-background:new 0 0 512 512;" xml:space="preserve">
<style type="text/css">
	.st0{fill:#FAF6E6;}
	.st1{fill:#7897AB;}
	.st2{fill:#013C4D;}
	.st3{fill:#FF4756;}
	.st4{fill:#FA4238;}
	.st5{fill:#0193FA;}
	.st6{fill:#F0E4B2;}
</style>
<path class="st0" d="M329.4,367.2c-9.1,0-16.6-7.5-16.6-16.6c0-4.7,0-117.3,0-208.9H69.3c-19.9,0-36.2,16.3-36.2,36.2v237.2
	c0,19.9,16.3,36.2,36.2,36.2H404c19.9,0,36.2-16.3,36.2-36.2v-47.9H329.4z"/>
<path class="st1" d="M329.4,367.2c-9.1,0-16.6-7.5-16.6-16.6c0-3.6,0-69.7,0-143H66.1v204.9c0,3.1,2.5,5.7,5.7,5.7h329.8
	c3.1,0,5.7-2.5,5.7-5.7v-45.3H329.4z"/>
<path class="st2" d="M104.5,174.5h208.3v35.1H104.5V174.5z"/>
<path class="st3" d="M109,174.5H71.8c-3.1,0-5.7,2.5-5.7,5.7v29.5H109V174.5z"/>
<path class="st4" d="M101.8,174.5h-30c-3.1,0-5.7,2.5-5.7,5.7v29.5h30v-29.5C96.1,177,98.6,174.5,101.8,174.5L101.8,174.5z"/>
<path class="st0" d="M488.1,13.9c-2.1,0-135.3,0-161.7,0c-9.1,0-16.6,7.5-16.6,16.6v323.1c0,9.1,7.4,16.6,16.6,16.6h161.7
	c9.1,0,16.6-7.5,16.6-16.6c0-8.3,0-320.5,0-323.1C504.7,21.4,497.2,13.9,488.1,13.9L488.1,13.9z"/>
<path class="st1" d="M334.7,84.3V296c0,3.1,2.5,5.6,5.6,5.6h133.8c3.1,0,5.6-2.5,5.6-5.6V84.3H334.7z"/>
<path class="st2" d="M476.4,61.8c-3.5,0-78.9,0-116.9,0v24.5h120.3c0-12.2,0-20,0-21.1C479.8,63.3,478.3,61.8,476.4,61.8L476.4,61.8
	z"/>
<path class="st5" d="M359.5,61.8v24.5h5.2V61.8C362.9,61.8,361.2,61.8,359.5,61.8z"/>
<path class="st4" d="M360.5,61.8c-12.6,0-21.2,0-22.3,0c-1.9,0-3.4,1.5-3.4,3.4v21.1h25.8V61.8H360.5z"/>
<circle class="st2" cx="407.2" cy="335.5" r="12.1"/>
<path class="st0" d="M453.2,450.7H12.9c-2.9,0-5.3,2.4-5.3,5.3v17.5c0,13.6,11,24.8,24.5,24.8H434c13.5,0,24.5-11.2,24.5-24.8V456
	C458.5,453.1,456.1,450.7,453.2,450.7z"/>
<path class="st0" d="M167.3,450.7v12.8c0,6.1,4.9,11,10.9,11H288c6,0,10.9-5,10.9-11v-12.8H167.3z"/>
<path class="st6" d="M197.3,463.5v-12.8h-30v12.8c0,6.1,4.9,11,10.9,11h30C202.2,474.5,197.3,469.6,197.3,463.5z"/>
<path d="M387.5,335.4c0,10.8,8.8,19.6,19.6,19.6c10.8,0,19.6-8.8,19.6-19.6s-8.8-19.6-19.6-19.6S387.5,324.6,387.5,335.4z
	 M411.6,335.4c0,2.5-2,4.6-4.6,4.6s-4.6-2-4.6-4.6c0-2.5,2-4.6,4.6-4.6S411.6,332.9,411.6,335.4z"/>
<path d="M425.2,44.8c4.1,0,7.5-3.4,7.5-7.5s-3.4-7.5-7.5-7.5H389c-4.1,0-7.5,3.4-7.5,7.5s3.4,7.5,7.5,7.5H425.2z"/>
<path d="M117.4,239.8H101c-4.1,0-7.5,3.4-7.5,7.5s3.4,7.5,7.5,7.5h16.4c4.1,0,7.5-3.4,7.5-7.5S121.5,239.8,117.4,239.8z"/>
<path d="M117.4,273.2H101c-4.1,0-7.5,3.4-7.5,7.5s3.4,7.5,7.5,7.5h16.4c4.1,0,7.5-3.4,7.5-7.5S121.5,273.2,117.4,273.2z"/>
<path d="M117.4,306.6H101c-4.1,0-7.5,3.4-7.5,7.5s3.4,7.5,7.5,7.5h16.4c4.1,0,7.5-3.4,7.5-7.5S121.5,306.6,117.4,306.6z"/>
<path d="M117.4,340.1H101c-4.1,0-7.5,3.4-7.5,7.5s3.4,7.5,7.5,7.5h16.4c4.1,0,7.5-3.4,7.5-7.5S121.5,340.1,117.4,340.1z"/>
<path d="M117.4,373.5H101c-4.1,0-7.5,3.4-7.5,7.5s3.4,7.5,7.5,7.5h16.4c4.1,0,7.5-3.4,7.5-7.5S121.5,373.5,117.4,373.5z"/>
<path d="M278.6,239.8h-130c-4.1,0-7.5,3.4-7.5,7.5s3.4,7.5,7.5,7.5h130c4.1,0,7.5-3.4,7.5-7.5S282.7,239.8,278.6,239.8z"/>
<path d="M278.6,273.2h-130c-4.1,0-7.5,3.4-7.5,7.5s3.4,7.5,7.5,7.5h130c4.1,0,7.5-3.4,7.5-7.5S282.7,273.2,278.6,273.2z"/>
<path d="M278.6,306.6h-130c-4.1,0-7.5,3.4-7.5,7.5s3.4,7.5,7.5,7.5h130c4.1,0,7.5-3.4,7.5-7.5S282.7,306.6,278.6,306.6z"/>
<path class="st6" d="M335.5,353.5c0-7.8,0-320,0-323.1c0-9.1,7.5-16.6,16.6-16.6c-13.4,0-24.3,0-30,0c-9.1,0-16.6,7.5-16.6,16.6
	v323.1c0,9.1,7.4,16.6,16.6,16.6h30C343,370.1,335.5,362.6,335.5,353.5z"/>
<path d="M278.6,340.1h-130c-4.1,0-7.5,3.4-7.5,7.5s3.4,7.5,7.5,7.5h130c4.1,0,7.5-3.4,7.5-7.5S282.7,340.1,278.6,340.1z"/>
<path d="M278.6,373.5h-130c-4.1,0-7.5,3.4-7.5,7.5s3.4,7.5,7.5,7.5h130c4.1,0,7.5-3.4,7.5-7.5S282.7,373.5,278.6,373.5z"/>
<path class="st6" d="M65.5,414.7V177.5c0-19.9,16.3-36.2,36.2-36.2H68.7c-19.9,0-36.2,16.3-36.2,36.2v237.2
	c0,19.9,16.3,36.2,36.2,36.2h32.9C81.8,450.8,65.5,434.6,65.5,414.7z"/>
<path class="st6" d="M37.9,474.5V457c0-2.9,2.4-5.3,5.3-5.3h-30c-2.9,0-5.3,2.4-5.3,5.3v17.5c0,13.6,11,24.8,24.5,24.8h30
	C48.9,499.3,37.9,488.2,37.9,474.5z"/>
<path d="M487.9,6.3H326.2c-13.3,0-24.1,10.8-24.1,24.1v103.8h-233c-24.1,0-43.7,19.6-43.7,43.7V415c0,11,4.1,21,10.8,28.7H12.8
	c-7,0-12.8,5.7-12.8,12.8v17.3c0,17.6,14.4,32,32,32h183.4c4.1,0,7.5-3.4,7.5-7.5s-3.4-7.5-7.5-7.5H32c-9.4,0-17-7.6-17-17v-15.1
	h144.7v5.2c0,10.1,8.2,18.4,18.4,18.4h109.7c10.1,0,18.4-8.2,18.4-18.4v-5.2h144.7v15.1c0,9.4-7.6,17-17,17H250.4
	c-4.1,0-7.5,3.4-7.5,7.5s3.4,7.5,7.5,7.5h183.4c17.6,0,32-14.4,32-32v-17.3c0-7-5.7-12.8-12.8-12.8h-16.3
	c6.7-7.7,10.8-17.7,10.8-28.7v-37.4h40.4c13.3,0,24.1-10.8,24.1-24.1V206.2c0-4.1-3.4-7.5-7.5-7.5s-7.5,3.4-7.5,7.5v147.3
	c0,5-4.1,9.1-9.1,9.1H440l0,0h-32.9h-80.9c-5,0-9.1-4.1-9.1-9.1c0-10.5,0-315.1,0-323.1c0-5,4.1-9.1,9.1-9.1h161.7
	c5,0,9.1,4.1,9.1,9.1v140.8c0,4.1,3.4,7.5,7.5,7.5s7.5-3.4,7.5-7.5V30.4C512,17.1,501.2,6.3,487.9,6.3L487.9,6.3z M73.4,217h228.7
	v136.5c0,13.3,10.8,24.1,24.1,24.1h73.4v33H73.4V217z M302.2,181.9V202H116.3v-20.1H302.2z M101.3,202H73.4v-20.1h27.9V202z
	 M291.2,463.8c0,1.8-1.6,3.4-3.4,3.4H178c-1.8,0-3.4-1.6-3.4-3.4v-5.2h116.5v5.2H291.2z M432.5,415c0,15.8-12.9,28.7-28.7,28.7
	c-30.9,0-325.7,0-334.7,0c-15.8,0-28.7-12.9-28.7-28.7V177.8c0-15.8,12.9-28.7,28.7-28.7h233v17.7c-10.9,0-219.7,0-230.6,0
	c-7.3,0-13.2,5.9-13.2,13.2v232.3c0,7.3,5.9,13.2,13.2,13.2h329.8c7.3,0,13.2-5.9,13.2-13.2v-34.8h17.9V415H432.5z"/>
<path d="M487.1,295.9c0-9.6,0-221.5,0-230.8c0-6-4.9-10.9-10.9-10.9c-6.5,0-131.7,0-138.2,0c-6,0-10.9,4.9-10.9,10.9
	c0,10.1,0,220.7,0,230.8c0,7.3,5.9,13.1,13.1,13.1H474C481.2,309.1,487.1,303.2,487.1,295.9L487.1,295.9z M472.1,78.7H367.8v-9.5
	h104.3L472.1,78.7L472.1,78.7z M352.8,69.2v9.5H342v-9.5H352.8z M342.1,294.1V93.7h130.1v200.4L342.1,294.1L342.1,294.1z"/>
</svg>
