<svg enable-background="new 0 0 512 512" viewBox="0 0 512 512" xmlns="http://www.w3.org/2000/svg"><path d="m251.9 195.5-146.6 81.2 146.6 81.2 146.6-81.2z" fill="#013c4d"/><path d="m198.5 334h106.9c5.2-43.3 22.5-84.4 49.2-119.5 16.5-21.7 26.3-48.7 26.3-78 0-73.3-61.1-132.3-135.2-128.8-66.5 3.1-120.2 57.3-122.7 123.8-1.2 31.6 9 60.7 26.8 83.7 26.8 34.7 43.6 75.7 48.7 118.8z" fill="#faf6e6"/><path d="m380.9 136.5c0 29.3-9.8 56.4-26.3 78-26.7 35.1-44 76.1-49.2 119.5h-30.7c5.2-43.3 22.5-84.4 49.2-119.5 16.5-21.7 26.3-48.7 26.3-78 0-66-49.7-120.5-113.7-128.1 3-.3 6.1-.6 9.1-.7 74.1-3.5 135.3 55.5 135.3 128.8z" fill="#f0e4b2"/><path d="m304.7 447.1h-105.5c-10.6 0-19.2-8.6-19.2-19.2v-78.6c0-10.6 8.6-19.2 19.2-19.2h105.5c10.6 0 19.2 8.6 19.2 19.2v78.6c-.1 10.6-8.7 19.2-19.2 19.2z" fill="#013c4d"/><path d="m343.7 118.4c0-20.5-12.7-38-30.7-45.1-2.3-16.4-16.3-29-33.4-29-9.7 0-18.4 4.1-24.5 10.6-2 2.1-3.1 4.9-3.1 7.9v143.1c0 8.2 6.6 15 14.8 15.1h.2c10.8 0 19.8-7.8 21.6-18.1 1.3.2 2.7.2 4.1.2 20 0 36.2-16.2 36.2-36.2 0-4.1-.7-8.1-1.9-11.7 10.1-8.9 16.7-22.1 16.7-36.8z" fill="#fa4238"/><path d="m160.2 118.4c0-20.5 12.7-38 30.7-45.1 2.3-16.4 16.3-29 33.4-29 9.7 0 18.4 4.1 24.5 10.6 2 2.1 3.1 4.9 3.1 7.9v143.1c0 8.2-6.6 15-14.8 15.1-.1 0-.1 0-.2 0-10.8 0-19.8-7.8-21.6-18.1-1.3.2-2.7.2-4.1.2-20 0-36.2-16.2-36.2-36.2 0-4.1.7-8.1 1.9-11.7-10.2-8.9-16.7-22.1-16.7-36.8z" fill="#7897ab"/><path d="m398.5 423.3-146.6 81.2v-146.6l146.6-81.2z" fill="#f0e4b2"/><path d="m105.3 423.3 146.6 81.2v-146.6l-146.6-81.2z" fill="#faf6e6"/><path d="m429.2 349-129.3 71.6c-4.7 2.6-10.6 1-13.3-3.6l-34.7-59.1 146.6-81.2 34.4 58.7c2.9 4.8 1.2 10.9-3.7 13.6z" fill="#faf6e6"/><path d="m74.6 349 129.3 71.6c4.7 2.6 10.6 1 13.3-3.6l34.7-59.1-146.6-81.2-34.4 58.7c-2.8 4.8-1.2 10.9 3.7 13.6z" fill="#f0e4b2"/><path d="m319.5 68c-4.5-18.1-21-31.2-40-31.2-10.2 0-20.1 3.9-27.6 10.7-7.5-6.8-17.4-10.7-27.6-10.7-19 0-35.5 13.2-40 31.2-19.4 9.3-31.6 28.6-31.6 50.4 0 14.7 5.8 28.7 15.9 39.1-.7 3.1-1 6.2-1 9.4 0 23.6 18.8 42.9 42.3 43.7 4.5 10.7 15 17.9 27.1 17.9h.2c5.7 0 10.8-2.2 14.7-5.8 3.9 3.5 9.1 5.7 14.7 5.8h.3c12.1 0 22.6-7.2 27.1-17.9 23.4-.7 42.3-20 42.3-43.7 0-3.2-.3-6.3-1-9.4 10.2-10.4 15.9-24.4 15.9-39.1 0-21.7-12.3-41.1-31.7-50.4zm-82.4 145.5h-.1c-4.6 0-8.8-2.2-11.4-5.7 5.1-2 9.8-5 13.9-8.9 3-2.8 3.1-7.6.3-10.6s-7.6-3.1-10.6-.3c-4.2 3.9-9.3 6.5-14.7 7.4-1 .1-2.1.2-3.1.2-15.8 0-28.7-12.9-28.7-28.7 0-3.1.5-6.2 1.5-9.2 3.3-8.5 10.6-15.1 19.1-17.5 1.4 4.7 3.7 9.1 6.7 12.8 1.5 1.8 3.7 2.8 5.8 2.8 1.7 0 3.3-.5 4.7-1.7 3.2-2.6 3.7-7.3 1.1-10.5-3.4-4.2-5.2-9.7-5.2-15.6 0-5 1.3-9.8 3.9-13.7 2.2-3.5 1.2-8.1-2.2-10.4-3.5-2.2-8.1-1.2-10.4 2.2-3.6 5.6-5.7 12.1-6.2 19-10.5 2.3-19.8 8.5-26.1 17.2-5-6.9-7.8-15.3-7.8-24 0-17 10.2-31.9 26-38.1 2.5-1 4.3-3.3 4.7-6 1.8-12.9 12.9-22.6 25.9-22.6 7.3 0 14.1 2.9 19.1 8.2.7.7 1.1 1.7 1.1 2.7v12.9c-9.6.3-18.8 4-26 10.6-3.1 2.8-3.3 7.5-.5 10.6 1.5 1.6 3.5 2.4 5.5 2.4 1.8 0 3.6-.6 5.1-2 4.4-4.1 10-6.4 15.8-6.7v115.2c.1 4.5-3.2 7.9-7.2 8zm91.3-71.1c-6.3-8.8-15.5-15-26.1-17.2-.5-6.9-2.6-13.4-6.2-19-2.2-3.5-6.9-4.5-10.4-2.2-3.5 2.2-4.5 6.9-2.2 10.4 2.5 3.9 3.9 8.7 3.9 13.7 0 5.9-1.9 11.4-5.2 15.6-2.6 3.2-2.1 7.9 1.1 10.5 1.4 1.1 3.1 1.7 4.7 1.7 2.2 0 4.4-1 5.8-2.8 3-3.7 5.3-8.1 6.7-12.8 8.5 2.4 15.8 9 19.1 17.5 1 3 1.5 6 1.5 9.2 0 15.8-12.9 28.7-28.7 28.7-1 0-2-.1-3.1-.2-5.4-.9-10.5-3.4-14.7-7.4-3-2.8-7.8-2.7-10.6.3s-2.7 7.8.3 10.6c4.1 3.9 8.8 6.9 13.9 8.9-2.6 3.5-6.8 5.7-11.4 5.7h-.1c-4.1 0-7.4-3.4-7.4-7.6v-115.3c5.8.3 11.4 2.6 15.8 6.7 1.4 1.3 3.3 2 5.1 2 2 0 4.1-.8 5.5-2.4 2.8-3.1 2.6-7.8-.5-10.6-7.2-6.6-16.4-10.3-26-10.7v-12.9c0-1 .4-2 1.1-2.7 5-5.3 11.8-8.2 19.1-8.2 13 0 24.2 9.7 25.9 22.6.4 2.7 2.2 5 4.7 6 15.8 6.2 26 21.1 26 38.1.2 8.5-2.6 16.9-7.6 23.8z"/><path d="m405 272.9c-.7-1.1-1.7-2.1-2.8-2.8l-55.5-30.8c4.3-6.9 8.9-13.7 13.9-20.3 18.2-23.9 27.8-52.5 27.8-82.6s-9.6-58.6-27.8-82.5c-2.5-3.3-7.2-3.9-10.5-1.4s-3.9 7.2-1.4 10.5c16.2 21.3 24.7 46.7 24.7 73.4 0 26.8-8.6 52.2-24.8 73.5-25.6 33.6-42.6 72.5-49.2 112.7h-94.9c-6.6-40.6-23.4-79.2-48.7-112-17.3-22.4-26.3-50.4-25.2-78.9 2.3-62.4 53-113.6 115.4-116.6 29.4-1.4 58.2 7.8 81.1 26 3.2 2.6 8 2 10.5-1.2 2.6-3.2 2-8-1.2-10.5-25.7-20.4-58.1-30.8-91.1-29.2-34 1.6-66.1 15.9-90.3 40.4-24.2 24.4-38.2 56.6-39.5 90.7-1.2 32 8.9 63.4 28.3 88.6 4.8 6.3 9.3 12.7 13.5 19.4l-55.7 30.9c-1.2.6-2.2 1.6-2.8 2.8l-34.4 58.7c-2.4 4.1-3 8.8-1.8 13.4s4.2 8.3 8.3 10.6l26.8 14.9v52.8c0 2.7 1.5 5.2 3.9 6.6l146.6 81.2c2.2 1.2 5 1.2 7.3 0l91.8-50.9c3.6-2 4.9-6.6 2.9-10.2s-6.6-4.9-10.2-2.9l-80.7 44.7v-106.4l20.7 35.3c3.2 5.5 9 8.6 14.9 8.6 2.9 0 5.8-.7 8.5-2.2l87.5-48.4v40.1l-20.5 11.4c-3.6 2-4.9 6.6-2.9 10.2 1.4 2.5 3.9 3.9 6.6 3.9 1.2 0 2.5-.3 3.6-.9l24.4-13.5c2.4-1.3 3.9-3.8 3.9-6.6v-52.8l26.8-14.9c4.1-2.3 7.1-6.1 8.3-10.6 1.3-4.6.6-9.3-1.8-13.4zm-153.1 76.4-21.1-11.7h42.2zm131.2-72.6-66.7 36.9c4.6-21.1 12.3-41.8 22.7-61.3zm-218.2-24.5c10.4 19.3 18 40 22.6 61.4l-66.7-37zm-52.1 126.6 14.1 7.8c1.2.6 2.4.9 3.6.9 2.6 0 5.2-1.4 6.6-3.9 2-3.6.7-8.2-2.9-10.2l-55.9-31c-.8-.4-1-1.1-1.1-1.5s-.2-1.1.2-1.8l30.7-52.4 133.5 74-30.8 52.5c-.7 1.1-2.1 1.5-3.2.9l-44.7-24.8c-3.6-2-8.2-.7-10.2 2.9s-.7 8.2 2.9 10.2l44.7 24.8c2.7 1.5 5.6 2.2 8.5 2.2 6 0 11.7-3.1 15-8.6l20.7-35.3v106.3l-131.6-72.9v-40.1zm314-37.8c-.1.4-.4 1-1.1 1.5l-129.3 71.6c-1.1.6-2.6.2-3.2-.9l-30.8-52.5 133.5-74 30.7 52.4c.4.8.3 1.6.2 1.9z"/><path d="m419.4 159.1v1.9c0 4.1 3.4 7.5 7.5 7.5 4.1 0 7.5-3.4 7.5-7.5v-1.9c0-4.1-3.4-7.5-7.5-7.5-4.2 0-7.5 3.3-7.5 7.5z"/><path d="m427 195.9c4.2 0 7.5-3.4 7.5-7.5v-1.9c0-4.1-3.4-7.5-7.5-7.5-4.1 0-7.5 3.4-7.5 7.5v1.9c0 4.2 3.4 7.5 7.5 7.5z"/><path d="m441.7 166.2c-.1 0-.1 0 0 0h-1.9c-4.1 0-7.5 3.4-7.5 7.5s3.4 7.5 7.5 7.5h1.9c4.1 0 7.5-3.4 7.5-7.5-.1-4.2-3.4-7.5-7.5-7.5z"/><path d="m412.2 181.3h1.9c4.1 0 7.5-3.4 7.5-7.5s-3.4-7.5-7.5-7.5h-1.9c-4.1 0-7.5 3.4-7.5 7.5.1 4.1 3.4 7.5 7.5 7.5z"/><path d="m109 39c4.2 0 7.5-3.4 7.5-7.5v-1.9c0-4.1-3.4-7.5-7.5-7.5-4.1 0-7.5 3.4-7.5 7.5v1.9c0 4.1 3.3 7.5 7.5 7.5z"/><path d="m116.5 57.1c0-4.1-3.4-7.5-7.5-7.5-4.1 0-7.5 3.4-7.5 7.5v1.9c0 4.1 3.4 7.5 7.5 7.5 4.1 0 7.5-3.4 7.5-7.5z"/><path d="m121.8 51.8h1.9c4.1 0 7.5-3.4 7.5-7.5s-3.4-7.5-7.5-7.5h-1.9c-4.1 0-7.5 3.4-7.5 7.5s3.4 7.5 7.5 7.5z"/><path d="m94.3 51.8h1.9c4.1 0 7.5-3.4 7.5-7.5s-3.4-7.5-7.5-7.5h-1.9c-4.1 0-7.5 3.4-7.5 7.5 0 4.2 3.3 7.5 7.5 7.5z"/><path d="m398.5 202.2c-4.1 0-7.5 3.4-7.5 7.5v1.9c0 4.1 3.4 7.5 7.5 7.5 4.1 0 7.5-3.4 7.5-7.5v-1.9c0-4.2-3.4-7.5-7.5-7.5z"/><path d="m398.6 246.6c4.2 0 7.5-3.4 7.5-7.5v-1.9c0-4.1-3.4-7.5-7.5-7.5-4.1 0-7.5 3.4-7.5 7.5v1.9c0 4.1 3.3 7.5 7.5 7.5z"/><path d="m411.4 231.8h1.9c4.1 0 7.5-3.4 7.5-7.5s-3.4-7.5-7.5-7.5h-1.9c-4.1 0-7.5 3.4-7.5 7.5 0 4.2 3.3 7.5 7.5 7.5z"/><path d="m385.7 216.9h-1.9c-4.1 0-7.5 3.4-7.5 7.5s3.4 7.5 7.5 7.5h1.9c4.1 0 7.5-3.4 7.5-7.5 0-4.2-3.3-7.5-7.5-7.5z"/></svg>