<?xml version="1.0" encoding="utf-8"?>
<!-- Generator: Adobe Illustrator 23.0.3, SVG Export Plug-In . SVG Version: 6.00 Build 0)  -->
<svg version="1.1" id="Capa_1" xmlns="http://www.w3.org/2000/svg" xmlns:xlink="http://www.w3.org/1999/xlink" x="0px" y="0px"
	 viewBox="0 0 512 433.7" style="enable-background:new 0 0 512 433.7;" xml:space="preserve">
<style type="text/css">
	.st0{fill:#7897AB;}
	.st1{opacity:0.1;fill:#FFFFFF;enable-background:new    ;}
	.st2{fill:#013C4D;}
	.st3{fill:#FA4238;}
	.st4{fill:#FAF6E6;}
	.st5{fill:#F0E4B2;}
</style>
<path class="st0" d="M151.6,402.5V275.2c0-5-4-9-9-9H84.9c-5,0-9,4-9,9v127.3c0,5,4,9,9,9h57.8C147.6,411.5,151.6,407.5,151.6,402.5
	z"/>
<path class="st1" d="M142.6,266.2H97.1c5,0,9,4,9,9v127.3c0,5-4,9-9,9h45.5c5,0,9-4,9-9V275.2C151.6,270.2,147.6,266.2,142.6,266.2z
	"/>
<path class="st2" d="M289,402.5V215.2c0-5-4-9-9-9h-57.8c-5,0-9,4-9,9v187.3c0,5,4,9,9,9H280C285,411.5,289,407.5,289,402.5z"/>
<path class="st1" d="M280,206.1h-45.7c5,0,9,4,9,9v187.3c0,5-4,9-9,9H280c5,0,9-4,9-9V215.2C289,210.2,285,206.1,280,206.1z"/>
<path class="st3" d="M426.4,402.5V148.9c0-5-4-9-9-9h-57.8c-5,0-9,4-9,9v253.6c0,5,4,9,9,9h57.8
	C422.4,411.5,426.4,407.5,426.4,402.5z"/>
<path class="st1" d="M417.4,139.9h-46.2c5,0,9,4,9,9v253.6c0,5-4,9-9,9h46.2c5,0,9-4,9-9V148.9C426.4,144,422.4,139.9,417.4,139.9z"
	/>
<path class="st4" d="M498.5,400.8H37.3c-3.4,0-6.2-2.8-6.2-6.2V18.2c0-3.4-2.8-6.2-6.2-6.2H13.5c-3.4,0-6.2,2.8-6.2,6.2v402
	c0,3.4,2.8,6.2,6.2,6.2h485.1c3.4,0,6.2-2.8,6.2-6.2V407C504.7,403.6,501.9,400.8,498.5,400.8z"/>
<circle class="st4" cx="391" cy="320.2" r="80.7"/>
<path class="st5" d="M448,377.2c31.5-31.5,31.5-82.6,0-114.1L333.9,377.2C365.4,408.7,416.5,408.7,448,377.2z"/>
<path d="M82.9,213c0.2,0,1.2,0.1,2.9,0.1c10.5,0,47.9-1.6,100.1-22c35.4-13.8,70.3-33.5,103.7-58.5c38.5-28.7,75.1-64.6,109.1-106.7
	l2.9,20.8c0.5,3.6,3.6,6.3,7.2,6.3c0.3,0,0.7,0,1-0.1c4-0.6,6.8-4.2,6.2-8.2l-5.4-38.4c-0.3-1.9-1.3-3.7-2.9-4.8
	c-1.6-1.2-3.5-1.7-5.5-1.4l-42.3,6.5c-4,0.6-6.7,4.3-6.1,8.3s4.3,6.7,8.3,6.1l24.6-3.8c-33,40.7-68.4,75.5-105.5,103.3
	c-32.3,24.2-66,43.3-100,56.7c-57.9,22.8-97.5,21.3-97.9,21.3c-4-0.2-7.4,2.9-7.6,6.9C75.8,209.3,78.9,212.8,82.9,213z"/>
<path d="M498.5,393.5h-59c4.9-3.2,9.4-7,13.6-11.2c16.6-16.6,25.8-38.7,25.8-62.2s-9.2-45.6-25.8-62.2c-5.9-5.9-12.5-10.8-19.5-14.7
	v-29.4c0-4-3.3-7.3-7.3-7.3s-7.3,3.3-7.3,7.3v23c-20-6.8-41.7-6.1-61.2,1.8V149c0-0.9,0.8-1.7,1.7-1.7h57.8c0.9,0,1.7,0.8,1.7,1.7
	v18.1c0,4,3.3,7.3,7.3,7.3s7.3-3.3,7.3-7.3V149c0-9-7.3-16.3-16.3-16.3h-57.8c-9,0-16.3,7.3-16.3,16.3v97.2
	c-5.2,3.3-10.1,7.2-14.6,11.8c-16.6,16.6-25.8,38.7-25.8,62.2s9.2,45.6,25.8,62.2c4.2,4.2,8.8,7.9,13.6,11.2h-46.1V215.2
	c0-9-7.3-16.3-16.3-16.3H222c-9,0-16.3,7.3-16.3,16.3v178.4h-47V275.2c0-9-7.3-16.3-16.3-16.3H84.9c-9,0-16.3,7.3-16.3,16.3v118.4
	H38.5V18.2c0-7.4-6-13.5-13.5-13.5H13.5C6,4.7,0,10.8,0,18.2V70c0,4,3.3,7.3,7.3,7.3s7.3-3.3,7.3-7.3V19.3h9.3v375.3
	c0,7.4,6,13.5,13.5,13.5h460.1v11H14.6v-303c0-4-3.3-7.3-7.3-7.3S0,112.1,0,116.1v304.1c0,7.4,6,13.5,13.5,13.5h485.1
	c7.4,0,13.5-6,13.5-13.5V407C512,399.6,506,393.5,498.5,393.5z M144.3,393.5H83.1V275.2c0-0.9,0.8-1.7,1.7-1.7h57.8
	c0.9,0,1.7,0.8,1.7,1.7L144.3,393.5L144.3,393.5z M281.7,393.5h-61.2V215.2c0-0.9,0.8-1.7,1.7-1.7H280c0.9,0,1.7,0.8,1.7,1.7V393.5
	L281.7,393.5z M423.5,386c-0.1,0-0.2,0.1-0.3,0.1c-7.4,3.6-15.4,6-23.6,6.9c-0.1,0-0.3,0-0.4,0.1c-0.6,0.1-1.1,0.1-1.7,0.2
	c-0.9,0.1-1.7,0.1-2.6,0.2c-0.3,0-0.5,0-0.8,0c-1.1,0-2.1,0.1-3.2,0.1s-2.1,0-3.2-0.1c-0.3,0-0.7,0-1,0c-0.8,0-1.6-0.1-2.4-0.2
	c-0.7-0.1-1.3-0.1-2-0.2c-0.5-0.1-0.9-0.1-1.4-0.2c-0.7-0.1-1.3-0.2-2-0.3c-0.1,0-0.2,0-0.3,0c-8.6-1.4-16.9-4.4-24.5-8.8
	c0,0-0.1,0-0.1-0.1c-5.4-3.2-10.5-7-15.1-11.6c-13.9-13.9-21.5-32.3-21.5-51.9s7.6-38,21.5-51.9c5.3-5.3,11.2-9.6,17.5-13
	c0.2-0.1,0.4-0.2,0.5-0.3c10.6-5.5,22.2-8.2,33.8-8.2c9.3,0,18.6,1.8,27.3,5.3c0.2,0.1,0.3,0.1,0.5,0.2c0.9,0.4,1.8,0.8,2.7,1.2
	c0.4,0.2,0.7,0.3,1.1,0.5c7.4,3.5,14.3,8.3,20.3,14.4c28.6,28.6,28.6,75.2,0,103.8C437.1,377.8,430.6,382.5,423.5,386z"/>
<path d="M386.4,370.3c-15.9-0.3-26.6-8.8-26.6-15.1c0-3.1,2.7-7.3,5.9-7.3c4.2,0,7.7,9,20.7,10v-30.1c-11.5-4.1-24.3-8.7-24.3-25.1
	c0-16.1,12.2-22.5,24.3-23.8v-3.7c0-1.5,1.5-2.9,3.7-2.9c1.9,0,3.8,1.4,3.8,2.9v3.5c8.7,0.3,21,2.9,21,9.2c0,2.4-1.8,7.3-5.6,7.3
	c-3.1,0-6.4-4.1-15.4-4.7v26c11.1,4.1,23.3,9.7,23.3,27.1c0,15.8-9.5,24.5-23.3,26.4v4.4c0,1.5-1.9,2.9-3.8,2.9
	c-2.2,0-3.7-1.4-3.7-2.9V370.3L386.4,370.3L386.4,370.3z M387.2,314v-23.3c-7.2,0.9-12.3,4.1-12.3,10.8
	C374.9,308.7,380.4,311.4,387.2,314z M393.2,330.6v27c6.9-1.3,11.3-5.4,11.3-12.7C404.5,336.9,399.5,333.3,393.2,330.6z"/>
</svg>
